HIERARCHY
ROOT hips
{
  OFFSET 4.514983404067499e-9 10.105397940993303 1.318478203070619
  CHANNELS 6 Xposition Yposition Zposition Yrotation Xrotation Zrotation
  JOINT spine
  {
    OFFSET -3.891297943093837e-9 0.5743022203102706 0
    CHANNELS 3 Yrotation Xrotation Zrotation
    JOINT chest
    {
      OFFSET 0 1.2550312016247926 0
      CHANNELS 3 Yrotation Xrotation Zrotation
      JOINT upperChest
      {
        OFFSET 0 1.2059856050120283 0
        CHANNELS 3 Yrotation Xrotation Zrotation
        JOINT neck
        {
          OFFSET 0 1.5290392449770056 0
          CHANNELS 3 Yrotation Xrotation Zrotation
          JOINT head
          {
            OFFSET 0 0.8186276690878121 0
            CHANNELS 3 Yrotation Xrotation Zrotation
            JOINT leftEye
            {
              OFFSET 0.4540883942785781 -0.2684596961258452 0.6133497327236779
              CHANNELS 3 Yrotation Xrotation Zrotation
              End Site
              {
                OFFSET 0.4540883942785781 -0.2684596961258452 0.6133497327236779
              }
            }
            JOINT rightEye
            {
              OFFSET -0.4540889229417456 -0.26846010916843954 0.6133525398671689
              CHANNELS 3 Yrotation Xrotation Zrotation
              End Site
              {
                OFFSET -0.4540889229417456 -0.26846010916843954 0.6133525398671689
              }
            }
          }
        }
        JOINT leftShoulder
        {
          OFFSET 1.1700010731725468 -0.4176065950681176 0
          CHANNELS 3 Yrotation Xrotation Zrotation
          JOINT leftUpperArm
          {
            OFFSET 1.1803911524554955 0 0
            CHANNELS 3 Yrotation Xrotation Zrotation
            JOINT leftLowerArm
            {
              OFFSET 2.4406171707858904 0 0
              CHANNELS 3 Yrotation Xrotation Zrotation
              JOINT leftHand
              {
                OFFSET 2.3832177068873874 0 0
                CHANNELS 3 Yrotation Xrotation Zrotation
                JOINT leftIndexProximal
                {
                  OFFSET 0.7310175006235151 0.08192774217833776 0.20404791572985242
                  CHANNELS 3 Yrotation Xrotation Zrotation
                  JOINT leftIndexIntermediate
                  {
                    OFFSET 0.3688845439429529 -0.010662034455094949 -0.014226011560394963
                    CHANNELS 3 Yrotation Xrotation Zrotation
                    JOINT leftIndexDistal
                    {
                      OFFSET 0.2271119941018298 -0.007897656478952575 -0.007580683836364496
                      CHANNELS 3 Yrotation Xrotation Zrotation
                      End Site
                      {
                        OFFSET 0.2271119941018298 -0.007897656478952575 -0.007580683836364496
                      }
                    }
                  }
                }
                JOINT leftLittleProximal
                {
                  OFFSET 0.678269929308182 0.08192620621401336 -0.323876516389586
                  CHANNELS 3 Yrotation Xrotation Zrotation
                  JOINT leftLittleIntermediate
                  {
                    OFFSET 0.34904545821382604 -0.0000017106393073174075 8.629360392919949e-9
                    CHANNELS 3 Yrotation Xrotation Zrotation
                    JOINT leftLittleDistal
                    {
                      OFFSET 0.2011060672849896 0.0031247840072243793 0.0038660318003989197
                      CHANNELS 3 Yrotation Xrotation Zrotation
                      End Site
                      {
                        OFFSET 0.2011060672849896 0.0031247840072243793 0.0038660318003989197
                      }
                    }
                  }
                }
                JOINT leftMiddleProximal
                {
                  OFFSET 0.7368181082522638 0.0819260272939426 0.02272335773438093
                  CHANNELS 3 Yrotation Xrotation Zrotation
                  JOINT leftMiddleIntermediate
                  {
                    OFFSET 0.41136739116025356 -0.0000015892429323649537 5.27860346960507e-8
                    CHANNELS 3 Yrotation Xrotation Zrotation
                    JOINT leftMiddleDistal
                    {
                      OFFSET 0.25378150303820757 -0.0000015332469289752737 1.3442958385345705e-8
                      CHANNELS 3 Yrotation Xrotation Zrotation
                      End Site
                      {
                        OFFSET 0.25378150303820757 -0.0000015332469289752737 1.3442958385345705e-8
                      }
                    }
                  }
                }
                JOINT leftRingProximal
                {
                  OFFSET 0.7284256823094712 0.08192611199801392 -0.1508405069143483
                  CHANNELS 3 Yrotation Xrotation Zrotation
                  JOINT leftRingIntermediate
                  {
                    OFFSET 0.381593741461262 -0.0000016975471202052006 6.592486757883709e-8
                    CHANNELS 3 Yrotation Xrotation Zrotation
                    JOINT leftRingDistal
                    {
                      OFFSET 0.22014536669820362 -0.0027420652959939673 -0.005037497035641991
                      CHANNELS 3 Yrotation Xrotation Zrotation
                      End Site
                      {
                        OFFSET 0.22014536669820362 -0.0027420652959939673 -0.005037497035641991
                      }
                    }
                  }
                }
                JOINT leftThumbProximal
                {
                  OFFSET 0.10842212958334652 -0.16573713992498873 -0.07779936144556289
                  CHANNELS 3 Yrotation Xrotation Zrotation
                  JOINT leftThumbIntermediate
                  {
                    OFFSET 0.40720553822379024 -0.01751267955631075 0.31852684427382305
                    CHANNELS 3 Yrotation Xrotation Zrotation
                    JOINT leftThumbDistal
                    {
                      OFFSET 0.23412859218032667 -0.01859690713588802 0.2146635043319005
                      CHANNELS 3 Yrotation Xrotation Zrotation
                      End Site
                      {
                        OFFSET 0.23412859218032667 -0.01859690713588802 0.2146635043319005
                      }
                    }
                  }
                }
              }
            }
          }
        }
        JOINT rightShoulder
        {
          OFFSET -1.1700037144859516 -0.41760703856471126 0
          CHANNELS 3 Yrotation Xrotation Zrotation
          JOINT rightUpperArm
          {
            OFFSET -1.1803910289368023 0 0
            CHANNELS 3 Yrotation Xrotation Zrotation
            JOINT rightLowerArm
            {
              OFFSET -2.440617418222133 0 0
              CHANNELS 3 Yrotation Xrotation Zrotation
              JOINT rightHand
              {
                OFFSET -2.3832181162662343 0 0
                CHANNELS 3 Yrotation Xrotation Zrotation
                JOINT rightIndexProximal
                {
                  OFFSET -0.7310168852843362 0.08192787643494381 0.20404785424302163
                  CHANNELS 3 Yrotation Xrotation Zrotation
                  JOINT rightIndexIntermediate
                  {
                    OFFSET -0.3688846010723953 -0.01066191355993129 -0.014226020535245201
                    CHANNELS 3 Yrotation Xrotation Zrotation
                    JOINT rightIndexDistal
                    {
                      OFFSET -0.22711216276130997 -0.007898902439410271 -0.007580718044857868
                      CHANNELS 3 Yrotation Xrotation Zrotation
                      End Site
                      {
                        OFFSET -0.22711216276130997 -0.007898902439410271 -0.007580718044857868
                      }
                    }
                  }
                }
                JOINT rightLittleProximal
                {
                  OFFSET -0.6782685897119165 0.08192501740206293 -0.3238766118101876
                  CHANNELS 3 Yrotation Xrotation Zrotation
                  JOINT rightLittleIntermediate
                  {
                    OFFSET -0.34904682243945895 -2.664019085329983e-7 3.792712677253007e-8
                    CHANNELS 3 Yrotation Xrotation Zrotation
                    JOINT rightLittleDistal
                    {
                      OFFSET -0.20110609302945537 0.0031260842677420797 0.0038661724369087186
                      CHANNELS 3 Yrotation Xrotation Zrotation
                      End Site
                      {
                        OFFSET -0.20110609302945537 0.0031260842677420797 0.0038661724369087186
                      }
                    }
                  }
                }
                JOINT rightMiddleProximal
                {
                  OFFSET -0.7368168209984411 0.08192485183145659 0.022723294831187846
                  CHANNELS 3 Yrotation Xrotation Zrotation
                  JOINT rightMiddleIntermediate
                  {
                    OFFSET -0.4113687575187084 -9.03141548214137e-8 4.759541079313312e-8
                    CHANNELS 3 Yrotation Xrotation Zrotation
                    JOINT rightMiddleDistal
                    {
                      OFFSET -0.2537822083525749 -9.554208624251714e-8 -1.6364827826187422e-9
                      CHANNELS 3 Yrotation Xrotation Zrotation
                      End Site
                      {
                        OFFSET -0.2537822083525749 -9.554208624251714e-8 -1.6364827826187422e-9
                      }
                    }
                  }
                }
                JOINT rightRingProximal
                {
                  OFFSET -0.7284243957721679 0.08192492753028224 -0.15084062217729294
                  CHANNELS 3 Yrotation Xrotation Zrotation
                  JOINT rightRingIntermediate
                  {
                    OFFSET -0.381595106800805 -2.5662436442530634e-7 2.929475539925619e-8
                    CHANNELS 3 Yrotation Xrotation Zrotation
                    JOINT rightRingDistal
                    {
                      OFFSET -0.22014544912608125 -0.002738002524970362 -0.0050375115645966
                      CHANNELS 3 Yrotation Xrotation Zrotation
                      End Site
                      {
                        OFFSET -0.22014544912608125 -0.002738002524970362 -0.0050375115645966
                      }
                    }
                  }
                }
                JOINT rightThumbProximal
                {
                  OFFSET -0.10842026863657162 -0.16573778435706465 -0.07779917642461898
                  CHANNELS 3 Yrotation Xrotation Zrotation
                  JOINT rightThumbIntermediate
                  {
                    OFFSET -0.40720600760521597 -0.017512298079938038 0.3185267362029824
                    CHANNELS 3 Yrotation Xrotation Zrotation
                    JOINT rightThumbDistal
                    {
                      OFFSET -0.2341289751103648 -0.018594162598156494 0.21466399510514025
                      CHANNELS 3 Yrotation Xrotation Zrotation
                      End Site
                      {
                        OFFSET -0.2341289751103648 -0.018594162598156494 0.21466399510514025
                      }
                    }
                  }
                }
              }
            }
          }
        }
      }
    }
  }
  JOINT leftUpperLeg
  {
    OFFSET -0.8565189721517369 0.4427277044191169 0
    CHANNELS 3 Yrotation Xrotation Zrotation
    JOINT leftLowerLeg
    {
      OFFSET 0 -3.918486704769693 0
      CHANNELS 3 Yrotation Xrotation Zrotation
      JOINT leftFoot
      {
        OFFSET 6.174701361744139e-7 -0.055233446196002234 4.612027801972084
        CHANNELS 3 Yrotation Xrotation Zrotation
        JOINT leftToes
        {
          OFFSET -3.4372540951010944e-7 -0.705284859504459 1.2256624571888697
          CHANNELS 3 Yrotation Xrotation Zrotation
          End Site
          {
            OFFSET -3.4372540951010944e-7 -0.705284859504459 1.2256624571888697
          }
        }
      }
    }
  }
  JOINT rightUpperLeg
  {
    OFFSET 0.8565189732197466 0.44272769569168136 0
    CHANNELS 3 Yrotation Xrotation Zrotation
    JOINT rightLowerLeg
    {
      OFFSET 0 -3.918486692649319 0
      CHANNELS 3 Yrotation Xrotation Zrotation
      JOINT rightFoot
      {
        OFFSET 6.995136552362391e-7 -0.05523244834012664 4.612028499942008
        CHANNELS 3 Yrotation Xrotation Zrotation
        JOINT rightToes
        {
          OFFSET -4.2566694985479714e-7 -0.7052846587611067 1.22566236096697
          CHANNELS 3 Yrotation Xrotation Zrotation
          End Site
          {
            OFFSET -4.2566694985479714e-7 -0.7052846587611067 1.22566236096697
          }
        }
      }
    }
  }
}
MOTION
Frames: 4
Frame Time: 0.03333333333333333
-0.6267727017402649 -0.2550399316549239 0.13316136598587036 13.324178318056266 1.4960660554398577 0.46293557183329875 0.1889133514905915 -0.3291808570081565 -0.06645214142790985 0.7943700638888413 -1.3509894321474414 -0.11012955095407137 0 0 0 -2.1293212423256342 3.5310659075741846 -1.3283330009020313 -12.532667326034776 17.854858949890247 -0.433430536754794 0 0 0 0 0 0 -7.267172623866 0.6725435640319125 -6.9701014656624904 -3.4022584752545795 9.580934167610957 -63.973773872880905 -24.00889061572476 0.06403111580652403 0.30115248188774474 -1.7313236597493589 -5.772658775725925 3.6052904507245613 4.4561985151264425 0.4424351297958154 -14.714288045911141 1.0355044304759522 0.10568679862204843 -11.657017717426745 0.7224138955542488 0.05116172887492597 -8.103546144047497 5.473938453763077 0.9361519481185202 -22.572018859698115 1.7161567260842787 0.2958400995062043 -19.562264413104145 2.338377493618907 0.564468557219499 -27.14023061550625 4.77825448299084 0.5735150552570102 -17.132357089275448 1.2478494135314666 0.15421579914251565 -14.091938196051299 1.2362910618463407 0.15133178153354152 -13.95887251328607 5.170141761339604 0.7635821502427383 -20.154292336836146 1.5099135714924086 0.22745315385641968 -17.133694370364125 1.8600851883489549 0.3494263463809206 -21.27861461073415 -5.468362080907789 -5.846867041356347 5.681890640069181 11.021926752357219 5.184311570736585 1.5584789627457039 -0.3405167870169486 -7.449076411280503 12.996531496612084 -6.4996246236414645 0.4697803386725068 8.431325731146421 21.60969536105523 24.5160053370426 60.66093358879433 26.13041117137387 0.07564181905016489 -0.3259795946703517 4.542744479114423 -15.679498113184689 -4.797018335333486 -2.7619316797558366 0.05993436727829185 12.550443710610939 -0.6870716236916876 0.060641972599990844 10.08611925158498 -0.508616539658812 0.03309853159971754 7.448949537594649 -5.538763909106306 1.0975996639444574 23.05451335507131 -1.3914747560888725 0.2550279928003815 20.771719941783797 -1.4170862717541144 0.26487250448097716 21.17192277152128 -3.6486108950633316 0.2818208513490992 15.787160251711576 -0.9074808169672066 0.10638566690918173 13.373729442519211 -0.7934062350413049 0.08106047865748955 11.667392677775235 -4.719865790059196 0.6820651394872731 19.82764223522571 -1.1788289334837905 0.18127609766331032 17.484894831340707 -1.143470088971239 0.1703347501007576 16.944474382617027 9.102780825605052 -7.153655278138466 -5.087711630551206 -15.287684791137382 6.360570635497539 -3.999686336450474 -5.777112522694754 -5.561455934699479 -14.289541666018133 0.43089522671787645 -12.974782716240679 3.0491059460863315 1.9350364129813555 22.21603679003375 1.8300469042259515 0.8106531421595772 -10.507657669293188 -5.232895410987884 -0.0000016321956077452703 -0.5424593267121007 8.75450530577533e-7 -13.958090219896512 -11.437650837886542 1.0971934639417718 -7.691891597754986 23.328523331545576 -4.182073799529088 -0.28365171156763225 -13.650104954599696 1.746983694142164 0.000037253755950274475 -0.02114702320758142 0.003371551700793638
-0.6189812421798706 -0.25295806062220905 0.13153241574764252 13.191654769003426 1.5316802075877314 0.44891716174798285 0.16187100753165878 -0.34634032465223563 -0.058914535224951 0.6779797563946263 -1.4065042088450306 -0.08310497870373157 0 0 0 -2.1573326070375187 3.5204385088612473 -1.3017974986489669 -12.757588921722899 17.84171515891288 -0.17381255375683563 0 0 0 0 0 0 -7.301867654318313 0.6735195480042677 -6.957680428823246 -3.424487295949352 9.5629812218264 -63.99602278432594 -24.0070377529292 0.06402192439387472 0.3011285231810565 -1.7129383925234554 -5.699490700725639 3.575226907618804 4.412156803003153 0.43059062436125156 -14.698922506189039 1.033792122135524 0.10533312228941094 -11.637367891194296 0.7249299847230547 0.05152905179350757 -8.132001744616394 5.447089230667034 0.9250153499093416 -22.575638958474606 1.7162118771916064 0.29586048362375245 -19.56298598563842 2.3378313846922154 0.5641749515659352 -27.1334656221033 4.7395905624837145 0.5613803622534712 -17.12285497116784 1.2466831562127199 0.1539231404867549 -14.078554759531048 1.2378195964238243 0.15171249921001592 -13.976475239495771 5.138097780488478 0.7517212367869661 -20.152121187102065 1.5094357939647833 0.22729723221650372 -17.128153306405807 1.8604214209167287 0.3495508128857727 -21.282642449067943 -5.46052266796576 -5.84529045954747 5.687513305170296 11.012779570010604 5.18103419539529 1.5546486917208386 -0.34230482262740747 -7.450072636172607 12.998370507126792 -6.513553763570151 0.4723216818166061 8.461875390721476 21.528881650845324 24.59355197687862 60.55773457001986 26.38831274177389 0.07711943574056715 -0.328942447352885 4.493543445102003 -15.249415945050323 -4.812736429902103 -2.8082773778147003 0.07035275371825782 12.53270794652603 -0.6861377115982323 0.060446725130255854 10.07204122634776 -0.5097113389329841 0.03325036659701579 7.465031415219464 -5.523602868513042 1.0947470042977567 23.157938845067818 -1.3980458597963452 0.25754611664002136 20.874351607866515 -1.4178930141887838 0.2651749036693073 21.184827035186252 -3.6757817351600446 0.2896375931304952 15.806874130279548 -0.9089402209569293 0.10673946998608894 13.395593400630538 -0.7944878866637203 0.08129176483636778 11.683411069395962 -4.722773244872484 0.684346211310865 19.883705326570563 -1.1830545366589331 0.18263223055725902 17.549576052603364 -1.1444081856291342 0.17060251604570092 16.958841446864323 9.104606573186748 -7.154330748977265 -5.099918398960078 -15.282739382679578 6.359026044896209 -3.994493673584577 -5.77871829392325 -5.560535074754603 -14.289505483592123 0.5751574335554424 -12.954723367119737 2.958005015489714 1.9642007139470723 22.12685167854211 1.9219472313532782 0.8067410843572521 -10.477020849441818 -5.219698299251477 -0.0000032659247567187214 -0.538882496211597 0.0000013240507011243552 -13.93806379530254 -11.43784770027279 1.066620343666933 -7.544836648319914 23.22341742437928 -4.114233619570936 -0.28839299971805715 -13.563881855946981 1.7631209879379017 0.00003918140710518402 -0.02090397451145911 0.0033555169720403226
-0.6031286716461182 -0.24863600862025592 0.12838435173034668 12.86940481038554 1.5837059894406151 0.4120152239846299 0.11418498426907663 -0.37738658191579194 -0.04281420359068797 0.4726860483169094 -1.5072752573520118 -0.0279066541569289 0 0 0 -2.2327285949137385 3.514636645328269 -1.2571849657013483 -13.299022332574603 17.84970679820225 0.3743508156344681 0 0 0 0 0 0 -7.368205332072729 0.6754240220762595 -6.935426665780633 -3.456697921908843 9.533881019879086 -64.03717153211004 -23.9989487558361 0.06398305098829052 0.3010135053794424 -1.6786913151736522 -5.553682069138464 3.512468799331067 4.336158513121773 0.41011556732750615 -14.664072658806765 1.0300945388798162 0.10457725786993499 -11.595281802781196 0.7301272053007993 0.052267783079038774 -8.190719738509973 5.401185365425898 0.9062872476693263 -22.59793361879156 1.7176654794409933 0.29638782929559515 -19.580178093689952 2.3367794761433105 0.5636308579584698 -27.12019379170647 4.673022825194135 0.5404849403489381 -17.10561504254138 1.2446147583170133 0.15340712584326094 -14.054724992482532 1.2409948533580966 0.15250445709903016 -14.012976112846703 5.083131165670725 0.73151595127591 -20.156867650343468 1.5093485419409884 0.22726174697014612 -17.12709736960694 1.8611605490271133 0.34985025288909233 -21.291447712283937 -5.444602025361981 -5.841966521270096 5.698485355804848 10.995070240949335 5.174766680305541 1.5468403423974264 -0.34508073430700253 -7.451597544867472 13.001780647684656 -6.544974556399809 0.47824963620119215 8.533343939095767 21.32563486706128 24.74722909911311 60.29798295183632 27.012145045168 0.08071423974836699 -0.336167676334586 4.377508448168505 -14.235861597916049 -4.85823507915933 -2.9082856957208096 0.09281046529881623 12.456303442918909 -0.6815126012224656 0.059639041477186586 10.003535523070111 -0.5120816102068462 0.033566409642200416 7.499957977768901 -5.506706744308007 1.0947078302814786 23.368579602174478 -1.411491967582375 0.2626902359139671 21.08450675148772 -1.419266535021479 0.26568997482896056 21.20643516896301 -3.739508107224292 0.3077702843206985 15.819564421593373 -0.9100831802518357 0.10701359183440165 13.412883200960986 -0.7967238665463372 0.08176118073445245 11.716845211512773 -4.739581735610549 0.692378826687282 19.972732714092714 -1.1907343107687975 0.18507530308381184 17.6674554016255 -1.1461675800927704 0.17114425117359292 16.98563617641011 9.085736028840508 -7.147976630005277 -5.1264730747380804 -15.244012155552502 6.345956056076465 -3.973112913965714 -5.780741497697249 -5.559331568307543 -14.289535755888993 0.8942593495615416 -12.88473679414521 2.787796372595551 2.046929589110318 21.94598096407414 2.104121720978802 0.7982852113163397 -10.423388522821336 -5.191389205562324 9.895485094240299e-7 -0.5195400694241429 0.0000016945490268262703 -13.780946366630497 -11.41494637939285 0.9944446501704189 -7.310026171066534 22.99779425850173 -3.978945173336493 -0.2975066077013265 -13.379627975329523 1.7970663000587572 0.00004138475384520282 -0.021448416998217288 0.0033618908845879647
-0.5893118977546692 -0.24371314179896686 0.12534086406230927 12.48165972665072 1.5991192404948094 0.36676359892197063 0.07947301696794666 -0.4008003701100023 -0.024149934389972604 0.322818068314079 -1.5839325394513482 0.03564798132475284 0 0 0 -2.354190044800219 3.550433380273951 -1.2323627966202704 -14.061365484118214 17.96816336234112 0.9780936494481441 0 0 0 0 0 0 -7.424270431857366 0.6768028557931725 -6.927494277382943 -3.4736882975288665 9.525360599058764 -64.06681752401289 -23.981691499034074 0.063889169179284 0.30081233761110304 -1.6517059008487314 -5.414895912531965 3.4423691293296166 4.298992570277124 0.3998362493680373 -14.620824635372434 1.0260131232136103 0.10373382816542949 -11.548650204898404 0.7355432215120757 0.05305355198522915 -8.251888497467169 5.37900493732629 0.8987126954391605 -22.67781888595398 1.7241441391655088 0.29869723810787585 -19.6571199548462 2.335785365673124 0.5631324968614351 -27.107772754089883 4.640655173944121 0.5304005260888736 -17.100276287684583 1.243868255956704 0.15321990862065246 -14.046106686707805 1.2443376989528714 0.15333923725493903 -14.051479772225102 5.056546844240879 0.7224662893669705 -20.198886669741267 1.5126807326459795 0.2283169394948158 -17.166040626408982 1.8620020863815063 0.35017170466485253 -21.30167168593317 -5.429122532727688 -5.838172295158589 5.707735596788284 10.980485515471496 5.169707963924542 1.5393229856206423 -0.34607128065895104 -7.452064231706159 13.004488159595983 -6.585570350591145 0.48621221125638625 8.62916310996489 21.026040698636056 24.89812581466103 59.90855161284647 27.88870993102402 0.08595596858544474 -0.3462029575999384 4.219978470341966 -12.838778511835663 -4.949392717985341 -3.020755591373949 0.11802876722304188 12.247373284563945 -0.6679784227229812 0.05726941149895613 9.803040958735071 -0.5147836431926549 0.033927746055280955 7.539756512458313 -5.528830039770329 1.111192024235781 23.564876677522076 -1.4241331121137017 0.2675944442919046 21.282604891475653 -1.4197689570418108 0.26590203314014094 21.21425401054603 -3.8244806127384283 0.331167301100638 15.736339241378216 -0.9049028374602885 0.10578249480455115 13.335039246779367 -0.7989130534353995 0.08221015274021162 11.749538232771943 -4.7877448524340664 0.7108064578472127 20.00762959214275 -1.1951855131780855 0.18647923450338558 17.735595730493003 -1.1473921302027268 0.1715397235629299 17.004366313282116 9.002170991105002 -7.119441189015452 -5.158579559178374 -15.12305021299667 6.304505304836129 -3.9206743854816186 -5.779121732269124 -5.560225405362379 -14.290360026396149 1.2395062062044704 -12.753827836155166 2.6540144133033 2.159524007962832 21.732412235364336 2.268059181257236 0.788288049680244 -10.358935334046926 -5.168305989825221 -0.000014063651605042807 -0.4832710692292442 6.136512379535372e-7 -13.495388222392556 -11.33955978688929 0.9259435781755867 -7.142437612097926 22.73173210259617 -3.8524958011937045 -0.3050546587937755 -13.174950967043292 1.8215418028142931 0.00004346151836890893 -0.020975192912031173 0.003358875162466935
